<svg width="20" height="20" viewBox="0 0 20 20" fill="none" xmlns="http://www.w3.org/2000/svg">
<path d="M16.7881 8.3983C16.7881 3.76637 13.0237 0 8.39407 0C3.76447 0 0 3.76637 0 8.3983C0 13.0302 3.76447 16.7966 8.39407 16.7966C10.1759 16.7966 11.8767 16.2424 13.3194 15.1926L13.812 14.831L18.7805 19.8021C19.0442 20.066 19.527 20.066 19.7907 19.8021C20.0698 19.5229 20.0698 19.0692 19.7907 18.7914L14.8221 13.8203L15.1835 13.3276C16.2342 11.8841 16.7867 10.1796 16.7867 8.39973L16.7881 8.3983ZM8.39407 15.3671C4.55423 15.3671 1.42878 12.2401 1.42878 8.3983C1.42878 4.55652 4.55423 1.4295 8.39407 1.4295C12.2339 1.4295 15.3594 4.55652 15.3594 8.3983C15.3594 12.2401 12.2339 15.3671 8.39407 15.3671Z" fill="#A6A6A6"/>
</svg>
